{"title":"The.7th.Dwarf.2014.720p.WEBRip.XviD.AC3-RARBG","uid":11766041,"size":2737207693,"categoryP":"video","categoryS":"hd___movies","magnet":"?xt=urn:btih:00d9fe1e669766cfed78d71d9489381beea2e48c&amp;dn=The.7th.Dwarf.2014.720p.WEBRip.XviD.AC3-RARBG&amp;tr=udp%3A%2F%2Ftracker.openbittorrent.com%3A80&amp;tr=udp%3A%2F%2Fopen.demonii.com%3A1337&amp;tr=udp%3A%2F%2Ftracker.coppersurfer.tk%3A6969&amp;tr=udp%3A%2F%2Fexodus.desync.com%3A6969","seeders":9,"leechers":1,"uploader":"vickey1992","files":4,"time":1426857912,"description":"\n\nMediaInfo\n\n\nFormat : AVI\nFormat/Info : Audio Video Interleave\nFormat profile : OpenDML\nFile size : 2.55 GiB\nDuration : 1h 27mn\nOverall bit rate : 4 192 Kbps\nMovie name : RARBG.COM - The.7th.Dwarf.2014.720p.WEBRip.XviD.AC3-RARBG\nWriting library : VirtualDub build 35491/release\nComment : RARBG.COM - The.7th.Dwarf.2014.720p.WEBRip.XviD.AC3-RARBG\n\nVideo\nID : 0\nFormat : MPEG-4 Visual\nFormat profile : Simple@L5\nFormat settings, BVOP : No\nFormat settings, QPel : No\nFormat settings, GMC : No warppoints\nFormat settings, Matrix : Default (H.263)\nCodec ID : XVID\nCodec ID/Hint : XviD\nDuration : 1h 27mn\nBit rate : 3 797 Kbps\nWidth : 1 280 pixels\nHeight : 688 pixels\nDisplay aspect ratio : 1.85:1\nFrame rate : 24.000 fps\nColor space : YUV\nChroma subsampling : 4:2:0\nBit depth : 8 bits\nScan type : Progressive\nCompression mode : Lossy\nBits/(Pixel*Frame) : 0.180\nStream size : 2.31 GiB (91%)\nWriting library : Lavc56.20.100\n\nAudio\nID : 1\nFormat : AC-3\nFormat/Info : Audio Coding 3\nMode extension : CM (complete main)\nFormat settings, Endianness : Big\nCodec ID : 2000\nDuration : 1h 27mn\nBit rate mode : Constant\nBit rate : 384 Kbps\nChannel(s) : 6 channels\nChannel positions : Front: L C R, Side: L R, LFE\nSampling rate : 48.0 KHz\nBit depth : 16 bits\nCompression mode : Lossy\nStream size : 239 MiB (9%)\nAlignment : Aligned on interleaves\nInterleave, duration : 42 ms (1.00 video frame)\nInterleave, preload duration : 512 ms","torrent":{"xt":"urn:btih:00d9fe1e669766cfed78d71d9489381beea2e48c","amp;dn":"The.7th.Dwarf.2014.720p.WEBRip.XviD.AC3-RARBG","amp;tr":["udp%3A%2F%2Ftracker.openbittorrent.com%3A80","udp%3A%2F%2Fopen.demonii.com%3A1337","udp%3A%2F%2Ftracker.coppersurfer.tk%3A6969","udp%3A%2F%2Fexodus.desync.com%3A6969"],"infoHash":"00d9fe1e669766cfed78d71d9489381beea2e48c","infoHashBuffer":{"type":"Buffer","data":[0,217,254,30,102,151,102,207,237,120,215,29,148,137,56,27,238,162,228,140]},"announce":[],"urlList":[]}}